<svg xmlns="http://www.w3.org/2000/svg" viewBox="0 0 32 32"><g fill-rule="evenodd"><path d="M1.555 29.021h1.144l8.948-19.179-.578-1.235zM3.202 29.021H4.36l8.111-17.41-.579-1.235zM4.848 29.021h1.159l7.287-15.642-.579-1.234zM6.494 29.021h1.16l6.463-13.873-.579-1.235zM8.141 29.021H9.3l5.641-12.105-.58-1.235zM9.787 29.021h1.16l4.817-10.336-.579-1.235zM11.434 29.021h1.159l3.994-8.568-.579-1.235zM13.081 29.021h1.158l3.171-6.8-.579-1.234zM14.742 29.021h1.143l2.348-5.031-.564-1.25zM16.388 29.021h1.144l1.524-3.277-.564-1.236zM18.035 29.021h1.144l.701-1.509-.564-1.236zM19.682 29.021h.899l-.442-.975zM0 29.021h1.052l9.772-20.947-.533-1.128zM16.13 1l-3.796 8.156.777 1.677 3.811-8.156zM14.361 13.501l3.796-8.156-.869-1.86-3.796 8.156zM15.596 16.154l3.796-8.156-.853-1.86-3.812 8.156zM16.831 18.807l3.811-8.156-.869-1.86-3.811 8.156zM18.066 21.459l3.811-8.156-.869-1.859-3.796 8.156zM19.316 24.112l3.796-8.156-.869-1.845-3.796 8.156zM20.2 25.987l5.184-11.144-.336-.731-5.198 11.143zM31.299 29.021h.686l.015-.015-.35-.732zM29.835 29.021h.687l.731-1.585-.335-.732zM28.372 29.021h.686l1.464-3.156-.336-.731zM26.908 29.021h.671l2.211-4.726-.336-.731zM25.429 29.021h.686l2.942-6.311-.334-.732zM23.966 29.021h.686l3.674-7.881-.351-.732zM22.502 29.021h.686l4.406-9.452-.35-.732zM21.313 28.411l.29.61h.106l5.154-11.022-.351-.732zM20.932 27.557l5.183-11.128-.335-.732-5.199 11.128z"/></g></svg>