<svg xmlns="http://www.w3.org/2000/svg" viewBox="0 0 32 32"><g fill="#000000" fill-rule="evenodd" transform="translate(0 1)"><polygon points="1.555 28.021 2.699 28.021 11.647 8.842 11.069 7.607"/><polygon points="3.202 28.021 4.36 28.021 12.471 10.611 11.892 9.376"/><polygon points="4.848 28.021 6.007 28.021 13.294 12.379 12.715 11.145"/><polygon points="6.494 28.021 7.654 28.021 14.117 14.148 13.538 12.913"/><polygon points="8.141 28.021 9.3 28.021 14.941 15.916 14.361 14.681"/><polygon points="9.787 28.021 10.947 28.021 15.764 17.685 15.185 16.45"/><polygon points="11.434 28.021 12.593 28.021 16.587 19.453 16.008 18.218"/><polygon points="13.081 28.021 14.239 28.021 17.41 21.221 16.831 19.987"/><polygon points="14.742 28.021 15.885 28.021 18.233 22.99 17.669 21.74"/><polygon points="16.388 28.021 17.532 28.021 19.056 24.744 18.492 23.508"/><polygon points="18.035 28.021 19.179 28.021 19.88 26.512 19.316 25.276"/><polygon points="19.682 28.021 20.581 28.021 20.139 27.046"/><polygon points="0 28.021 1.052 28.021 10.824 7.074 10.291 5.946"/><polygon points="16.13 0 12.334 8.156 13.111 9.833 16.922 1.677"/><polygon points="14.361 12.501 18.157 4.345 17.288 2.485 13.492 10.641"/><polygon points="15.596 15.154 19.392 6.998 18.539 5.138 14.727 13.294"/><polygon points="16.831 17.807 20.642 9.651 19.773 7.791 15.962 15.947"/><polygon points="18.066 20.459 21.877 12.303 21.008 10.444 17.212 18.6"/><polygon points="19.316 23.112 23.112 14.956 22.243 13.111 18.447 21.267"/><polygon points="20.2 24.987 25.384 13.843 25.048 13.112 19.85 24.255"/><polygon points="31.299 28.021 31.985 28.021 32 28.006 31.65 27.274"/><polygon points="29.835 28.021 30.522 28.021 31.253 26.436 30.918 25.704"/><polygon points="28.372 28.021 29.058 28.021 30.522 24.865 30.186 24.134"/><polygon points="26.908 28.021 27.579 28.021 29.79 23.295 29.454 22.564"/><polygon points="25.429 28.021 26.115 28.021 29.057 21.71 28.723 20.978"/><polygon points="23.966 28.021 24.652 28.021 28.326 20.14 27.975 19.408"/><polygon points="22.502 28.021 23.188 28.021 27.594 18.569 27.244 17.837"/><polygon points="21.313 27.411 21.603 28.021 21.709 28.021 26.863 16.999 26.512 16.267"/><polygon points="20.932 26.557 26.115 15.429 25.78 14.697 20.581 25.825"/></g></svg>